<?xml version="1.0" standalone="no"?>
<!DOCTYPE svg PUBLIC "-//W3C//DTD SVG 20010904//EN"
 "http://www.w3.org/TR/2001/REC-SVG-20010904/DTD/svg10.dtd">
<svg version="1.0" xmlns="http://www.w3.org/2000/svg"
 width="535.000000pt" height="416.000000pt" viewBox="0 0 535.000000 416.000000"
 preserveAspectRatio="xMidYMid meet">
<metadata>
Created by potrace 1.15, written by Peter Selinger 2001-2017
</metadata>
<g transform="translate(0.000000,416.000000) scale(0.100000,-0.100000)"
fill="#000000" stroke="none">
<path d="M2600 3470 c0 -27 5 -50 10 -50 6 0 10 9 10 19 0 11 6 22 13 25 10 5
10 7 0 12 -20 9 -15 24 7 24 11 0 20 5 20 10 0 6 -13 10 -30 10 -29 0 -30 -1
-30 -50z"/>
<path d="M2768 3465 c-2 -28 1 -45 8 -45 6 0 12 20 12 45 1 25 -2 45 -7 45 -5
0 -11 -20 -13 -45z"/>
<path d="M2900 3476 c0 -19 -3 -41 -6 -50 -3 -9 -1 -16 5 -16 6 0 11 11 11 24
0 34 18 42 26 12 3 -14 12 -30 19 -36 10 -9 15 -4 20 22 4 18 9 41 12 52 3 12
1 17 -8 14 -7 -2 -13 -12 -15 -22 -4 -29 -11 -28 -24 4 -17 41 -40 39 -40 -4z"/>
<path d="M2302 3478 c-19 -19 -14 -28 18 -40 31 -10 36 -35 6 -30 -9 2 -16 -2
-16 -8 0 -6 12 -10 28 -8 38 4 36 38 -3 58 -28 14 -29 15 -7 18 12 2 22 8 22
13 0 13 -34 11 -48 -3z"/>
<path d="M3087 3433 c-3 -27 -4 -49 -4 -49 1 -1 17 -5 35 -9 20 -4 32 -3 32 4
0 6 -9 11 -20 11 -25 0 -27 30 -2 30 15 1 15 2 -2 15 -17 13 -17 15 -3 21 9 3
21 3 27 -1 5 -3 10 -2 10 3 0 11 -24 22 -50 22 -13 0 -19 -11 -23 -47z"/>
<path d="M2040 3425 c-29 -10 -31 -12 -14 -17 15 -4 23 -17 28 -42 4 -20 11
-36 16 -36 13 0 13 12 0 46 -8 19 -7 30 1 40 17 21 9 23 -31 9z"/>
<path d="M3264 3425 c-4 -9 2 -25 15 -39 22 -24 18 -44 -6 -24 -7 6 -17 8 -21
4 -14 -14 29 -36 49 -25 25 13 24 27 -3 57 l-23 25 23 -6 c15 -3 22 -1 19 6
-6 19 -46 20 -53 2z"/>
<path d="M3430 3391 c0 -5 5 -11 11 -13 8 -3 6 -15 -4 -41 -10 -22 -12 -39 -6
-42 5 -4 12 2 15 12 14 46 25 64 34 58 6 -3 10 -1 10 5 0 6 -12 15 -26 20 -31
12 -34 12 -34 1z"/>
<path d="M1870 3365 c-18 -21 -5 -45 25 -45 31 0 33 -15 3 -25 -20 -6 -21 -8
-5 -12 29 -8 49 5 45 29 -2 17 -11 24 -30 26 -29 3 -40 22 -13 22 8 0 15 5 15
10 0 15 -26 12 -40 -5z"/>
<path d="M1713 3308 l-22 -11 21 -41 c11 -22 21 -42 23 -44 1 -1 16 3 34 9 22
8 29 15 22 22 -7 7 -15 6 -25 -2 -17 -14 -29 0 -20 23 4 11 0 16 -12 16 -16 0
-15 3 6 20 27 21 11 26 -27 8z"/>
<path d="M3698 3238 c-10 -23 -15 -44 -12 -47 4 -3 9 0 11 7 3 6 13 12 23 12
29 0 50 11 50 26 0 12 -37 44 -50 44 -3 0 -13 -19 -22 -42z m52 1 c0 -5 -7 -9
-15 -9 -15 0 -20 12 -9 23 8 8 24 -1 24 -14z"/>
<path d="M1585 3210 c7 -32 -5 -39 -25 -15 -17 21 -28 10 -22 -22 l5 -28 -27
24 c-39 37 -45 16 -6 -24 35 -36 67 -47 56 -20 -3 8 -9 22 -12 30 -4 10 0 15
10 15 9 0 19 -7 22 -15 4 -8 13 -15 21 -15 10 0 13 6 8 18 -4 9 -9 32 -12 50
-3 17 -10 32 -15 32 -5 0 -7 -13 -3 -30z"/>
<path d="M3850 3172 c-27 -22 -22 -60 10 -80 18 -11 25 -11 46 3 30 20 33 69
5 85 -27 14 -35 13 -61 -8z m58 -28 c4 -25 -20 -47 -42 -38 -32 12 -10 68 24
62 8 -2 16 -13 18 -24z"/>
<path d="M1375 3091 c8 -36 -9 -48 -28 -20 -9 13 -17 16 -22 10 -7 -12 41 -81
56 -81 5 0 7 11 3 24 -7 29 9 42 26 21 7 -8 16 -12 21 -9 5 3 -2 19 -16 36
-14 16 -25 34 -25 39 0 5 -5 9 -11 9 -7 0 -8 -11 -4 -29z"/>
<path d="M4017 3061 c-23 -40 -22 -68 4 -76 17 -6 29 0 50 23 29 31 37 52 19
52 -5 0 -16 -13 -25 -30 -9 -16 -22 -30 -30 -30 -21 0 -18 34 5 55 11 10 17
22 14 26 -9 15 -19 10 -37 -20z"/>
<path d="M2063 2985 c-20 -19 -42 -35 -49 -35 -7 0 -22 -12 -34 -27 -18 -23
-21 -36 -16 -83 3 -30 6 -64 7 -75 2 -31 -33 -119 -50 -129 -32 -19 -71 -65
-71 -84 0 -15 9 -21 35 -26 19 -4 37 -10 39 -15 3 -4 -6 -34 -19 -67 -28 -68
-32 -135 -10 -154 24 -20 17 -60 -16 -98 -34 -39 -99 -166 -99 -194 0 -21 -29
-38 -67 -38 -16 0 -34 -5 -41 -12 -17 -17 -15 -171 3 -292 8 -55 15 -100 15
-102 0 -1 -26 -5 -57 -9 -303 -34 -551 -76 -671 -113 -58 -19 -64 -19 -68 -4
-21 67 -63 102 -124 102 -44 0 -73 -15 -150 -79 -98 -82 -131 -96 -227 -96
-94 0 -98 -16 -6 -22 36 -3 74 2 100 11 48 17 147 82 178 116 47 52 131 67
178 30 49 -39 46 -57 -22 -120 -71 -66 -76 -89 -39 -187 24 -65 26 -68 33 -61
3 2 -6 37 -20 77 -15 41 -23 82 -19 93 5 18 7 18 24 3 17 -15 165 -17 1890
-18 l1872 -2 18 22 c38 47 40 -5 4 -108 -30 -86 -29 -124 11 -258 30 -102 32
-152 7 -174 -17 -16 -164 -17 -1908 -17 -1694 0 -1892 2 -1912 16 -29 20 -29
59 3 170 31 105 30 136 -5 145 -50 14 -111 8 -192 -18 -57 -18 -105 -27 -155
-27 -78 0 -111 14 -75 33 12 6 42 36 67 67 l45 56 -44 52 c-33 39 -52 52 -80
57 -20 3 -36 2 -36 -3 0 -5 27 -38 61 -74 l61 -66 -32 -33 c-17 -18 -47 -41
-66 -51 -40 -22 -43 -31 -9 -40 14 -3 25 -9 25 -13 0 -4 -11 -13 -25 -19 -38
-18 -30 -30 32 -48 68 -20 140 -14 228 16 60 21 160 31 182 17 8 -5 6 -24 -8
-70 -19 -62 -26 -201 -11 -223 26 -40 -28 -39 1925 -42 1278 -1 1881 1 1908 8
21 6 44 20 50 31 14 27 6 188 -12 246 -7 23 -10 46 -5 50 14 14 120 5 179 -16
87 -31 164 -36 231 -17 62 18 68 27 31 44 -14 6 -25 16 -25 21 0 5 11 12 25
15 23 6 36 26 16 26 -19 0 -111 81 -111 98 0 10 25 42 55 72 30 30 55 58 55
62 0 4 -15 8 -34 8 -29 0 -41 -8 -76 -50 -28 -34 -40 -55 -36 -68 4 -10 31
-44 62 -76 47 -48 53 -57 37 -63 -39 -16 -139 -6 -223 21 -71 23 -96 27 -152
23 l-68 -6 0 28 c0 15 9 54 20 86 33 97 29 121 -35 180 -63 57 -69 83 -29 120
20 18 38 25 69 25 44 0 46 -1 172 -98 81 -62 148 -85 229 -78 31 2 62 10 68
16 8 8 -6 9 -55 4 -89 -9 -145 11 -234 81 -92 73 -147 99 -194 91 -49 -8 -84
-36 -95 -77 -5 -19 -10 -35 -11 -36 0 -1 -35 9 -77 22 -93 28 -316 69 -493 90
-247 29 -222 18 -204 95 17 76 14 94 -28 151 -22 31 -49 85 -61 125 -35 111
-91 189 -181 251 -2 1 14 42 36 90 48 103 68 188 59 256 -6 54 -17 72 -60 98
-22 14 -30 27 -33 56 -5 47 -25 79 -66 103 -18 11 -40 35 -51 54 -10 19 -32
40 -48 47 -25 10 -33 9 -56 -8 -15 -11 -32 -35 -38 -53 -9 -29 -18 -36 -55
-44 -32 -8 -47 -18 -59 -41 -8 -16 -25 -38 -38 -48 -28 -23 -47 -61 -56 -109
-4 -21 -9 -38 -11 -38 -2 0 -30 7 -62 15 -105 27 -275 11 -383 -36 l-45 -20
-36 40 c-20 22 -46 69 -59 103 -12 35 -31 79 -43 98 -11 19 -24 53 -28 75 -11
57 -40 137 -56 157 -8 9 -25 19 -38 22 -14 4 -35 17 -49 31 -34 34 -60 31
-103 -10z m1125 -682 c41 -32 106 -122 96 -132 -3 -3 -11 3 -18 13 -21 37 -97
114 -116 119 -34 9 -31 -10 5 -37 19 -15 46 -47 61 -72 l26 -45 -54 -57 c-55
-58 -106 -150 -128 -231 l-12 -45 -28 67 c-31 73 -91 162 -121 178 -26 13 -24
39 9 112 33 73 84 134 127 154 46 20 110 10 153 -24z m-530 -33 c41 -29 106
-126 96 -142 -3 -5 -25 18 -48 50 -41 55 -93 92 -130 92 -26 0 -18 -14 20 -35
33 -17 104 -97 104 -115 0 -4 -14 -13 -30 -20 -43 -18 -129 -115 -159 -180
-14 -30 -35 -91 -46 -134 l-22 -80 -12 48 c-13 52 -51 133 -84 179 -17 26 -18
34 -8 85 16 83 73 192 126 241 41 37 49 41 98 41 44 0 62 -6 95 -30z m-531
-66 c41 -31 78 -79 98 -127 22 -54 -3 -38 -45 30 -37 59 -97 107 -126 101 -13
-2 -9 -9 19 -28 32 -22 97 -98 97 -114 0 -3 -10 -6 -23 -6 -49 0 -117 -32
-160 -76 -54 -54 -92 -124 -128 -229 -27 -80 -27 -80 -39 -50 -35 90 -19 261
35 372 72 150 178 199 272 127z m1292 -93 c104 -53 200 -246 201 -402 l0 -36
-192 -18 c-106 -10 -229 -18 -273 -19 l-80 -1 3 70 c7 178 91 353 194 404 53
26 98 27 147 2z m-593 -52 c88 -42 155 -150 189 -300 9 -42 15 -90 13 -105 -3
-27 -6 -29 -63 -36 -177 -20 -455 -40 -470 -34 -15 6 -17 15 -11 79 19 190 96
345 198 396 54 26 90 27 144 0z m-610 -63 c59 -27 102 -77 144 -168 27 -57 60
-189 60 -237 0 -20 -77 -31 -362 -53 -193 -14 -193 -14 -183 82 21 219 140
394 270 399 11 0 43 -10 71 -23z m-466 -88 c0 -17 -20 -47 -20 -31 0 6 -3 18
-6 27 -4 11 -1 16 10 16 9 0 16 -6 16 -12z m3 -225 c44 -107 82 -222 74 -229
-2 -2 -18 29 -36 70 -20 45 -40 76 -51 79 -13 3 -19 18 -24 58 -4 30 -9 71
-12 92 -3 20 -4 37 -1 37 3 0 25 -48 50 -107z m1917 -64 c0 -12 -44 -187 -66
-264 l-14 -51 -197 1 -196 1 -49 97 c-28 56 -54 97 -63 97 -17 0 -40 -42 -69
-129 l-22 -64 -220 1 c-120 0 -226 1 -234 1 -8 1 -28 26 -44 56 -17 33 -35 55
-45 55 -9 0 -29 -24 -46 -56 l-30 -56 -226 -4 -225 -4 -27 89 c-15 50 -27 94
-27 98 0 4 26 7 57 6 32 -2 414 28 848 66 849 74 895 77 895 60z"/>
<path d="M3360 2075 c0 -2 17 -13 39 -24 52 -27 87 -71 127 -158 19 -40 38
-73 44 -73 20 0 9 50 -27 121 -43 83 -105 139 -154 139 -16 0 -29 -2 -29 -5z"/>
<path d="M2770 2025 c0 -2 13 -11 29 -19 38 -20 95 -99 122 -170 24 -61 39
-72 39 -28 0 68 -118 222 -170 222 -11 0 -20 -2 -20 -5z"/>
<path d="M2160 1966 c0 -2 20 -16 44 -30 44 -26 91 -87 121 -159 15 -36 35
-50 35 -24 -1 22 -39 98 -71 138 -35 45 -129 99 -129 75z"/>
<path d="M1203 2991 c-26 -22 -30 -36 -8 -28 8 4 25 -6 40 -25 31 -37 46 -30
16 8 -13 16 -19 35 -16 46 8 23 -4 23 -32 -1z"/>
<path d="M4157 2936 c-26 -33 -26 -34 -7 -51 11 -10 23 -15 28 -10 4 4 1 10
-5 12 -19 7 -16 27 7 48 11 10 20 22 20 27 0 18 -19 7 -43 -26z"/>
<path d="M1067 2873 c-14 -17 -13 -21 18 -55 32 -35 62 -36 33 -1 -12 15 -10
16 20 10 18 -4 32 -2 32 3 0 6 -7 10 -15 10 -8 0 -22 11 -31 25 -19 29 -35 32
-57 8z m33 -13 c0 -5 -4 -10 -10 -10 -5 0 -10 5 -10 10 0 6 5 10 10 10 6 0 10
-4 10 -10z"/>
<path d="M4304 2866 c5 -14 -1 -28 -20 -48 -15 -15 -25 -31 -21 -34 4 -4 16 5
28 20 14 18 28 26 40 23 26 -7 24 5 -8 34 -22 20 -25 21 -19 5z"/>
<path d="M946 2744 c-45 -45 7 -104 65 -74 38 21 14 90 -31 90 -10 0 -26 -7
-34 -16z m62 -33 c4 -29 -15 -43 -40 -30 -18 10 -24 39 -11 53 15 15 48 1 51
-23z"/>
<path d="M4393 2720 c-33 -30 -42 -50 -23 -50 6 0 10 5 10 10 0 6 7 10 15 10
18 0 19 -12 3 -28 -9 -9 -9 -15 -1 -23 7 -7 12 -3 17 14 3 14 15 27 26 30 22
6 27 36 8 55 -16 16 -18 16 -55 -18z m47 -10 c0 -5 -4 -10 -10 -10 -5 0 -10 5
-10 10 0 6 5 10 10 10 6 0 10 -4 10 -10z"/>
<path d="M840 2610 c0 -6 7 -13 15 -16 30 -12 15 -26 -20 -20 -25 5 -35 3 -35
-6 0 -16 69 -72 78 -63 4 3 -4 15 -18 25 l-25 20 43 0 c23 0 42 2 42 5 0 8
-64 64 -72 65 -5 0 -8 -5 -8 -10z"/>
<path d="M4524 2585 c-3 -14 -15 -30 -25 -36 -11 -5 -17 -14 -14 -20 4 -5 15
-3 28 6 12 8 34 15 50 15 17 0 26 4 22 10 -4 6 -16 8 -27 4 -18 -5 -20 -3 -14
20 4 15 2 26 -4 26 -5 0 -12 -11 -16 -25z"/>
<path d="M970 2004 c-12 -4 -15 -22 -15 -84 0 -68 2 -80 17 -80 20 0 32 16 18
25 -11 7 -14 68 -4 78 4 4 21 -17 38 -46 47 -79 61 -74 61 23 0 67 -2 80 -16
80 -14 0 -16 -8 -11 -45 6 -60 -10 -58 -37 5 -12 28 -25 49 -29 49 -4 -1 -14
-3 -22 -5z"/>
<path d="M4575 1985 c-45 -44 -25 -145 29 -145 29 0 46 18 46 50 0 32 -17 50
-47 50 -14 0 -23 6 -23 15 0 20 30 32 40 15 5 -9 13 -9 25 -3 16 9 15 12 -6
27 -31 21 -35 20 -64 -9z m55 -90 c0 -7 -6 -18 -14 -24 -20 -17 -44 13 -26 33
13 17 40 10 40 -9z"/>
<path d="M700 1980 c-12 -23 2 -60 24 -60 8 0 24 -8 36 -18 20 -16 21 -19 6
-31 -14 -12 -19 -11 -35 3 -18 17 -20 17 -30 -2 -10 -18 -7 -21 29 -27 47 -8
70 6 70 41 0 22 -34 52 -75 68 -6 2 -5 9 3 17 10 11 17 11 31 2 15 -10 22 -9
30 1 9 11 6 15 -11 20 -42 11 -67 6 -78 -14z"/>
<path d="M855 1920 c0 -73 2 -80 20 -80 18 0 20 7 20 80 0 73 -2 80 -20 80
-18 0 -20 -7 -20 -80z"/>
<path d="M1167 1988 c-15 -12 -37 -58 -37 -78 0 -5 12 -22 26 -39 19 -23 34
-31 58 -31 34 0 56 15 56 37 0 10 -6 10 -25 -3 -23 -15 -27 -15 -50 0 -27 18
-34 63 -13 84 15 15 68 16 68 1 0 -8 5 -8 15 1 8 7 15 19 15 26 0 18 -89 19
-113 2z"/>
<path d="M1330 1985 c8 -10 11 -37 8 -79 l-4 -63 62 -2 c58 -2 62 0 57 19 -5
17 -11 19 -44 14 -35 -6 -39 -4 -39 15 0 14 6 21 20 21 13 0 20 7 20 19 0 14
-5 18 -20 14 -16 -4 -20 0 -20 17 0 20 4 22 34 17 25 -4 36 -1 40 9 4 11 -8
14 -61 14 -57 0 -64 -2 -53 -15z"/>
<path d="M3954 1986 c-19 -14 -19 -15 0 -22 12 -5 21 -3 24 4 6 18 32 14 32
-4 0 -9 -16 -34 -36 -56 -19 -22 -33 -45 -31 -51 2 -7 22 -13 45 -15 33 -2 42
0 42 13 0 11 -6 14 -25 9 -34 -8 -34 18 0 40 30 19 42 60 25 81 -16 19 -50 19
-76 1z"/>
<path d="M4170 1981 c-16 -30 -12 -107 6 -125 38 -38 84 -1 84 67 0 54 -15 77
-50 77 -19 0 -33 -7 -40 -19z m64 -27 c15 -58 -21 -117 -44 -74 -14 26 -13 73
2 88 19 19 35 14 42 -14z"/>
<path d="M4390 1989 c-11 -8 -12 -12 -2 -16 15 -6 16 -77 2 -104 -9 -15 -7
-21 5 -25 8 -3 22 -3 31 0 13 5 14 9 4 21 -7 9 -11 37 -8 75 3 61 -3 70 -32
49z"/>
<path d="M855 1103 c-18 -3 -20 -12 -20 -108 l0 -105 29 0 c23 0 27 3 20 18
-12 28 -17 103 -6 114 6 6 16 -8 28 -41 10 -28 23 -51 30 -51 6 0 22 24 35 53
l24 52 3 -60 c2 -36 -1 -61 -7 -63 -22 -7 -10 -22 17 -22 l29 0 -5 78 c-3 47
0 87 7 99 9 18 7 21 -21 27 -17 3 -33 6 -37 6 -4 0 -13 -20 -20 -45 -7 -25
-16 -45 -20 -45 -12 0 -31 48 -31 75 0 25 -8 28 -55 18z"/>
<path d="M1183 1103 c-67 -4 -88 -13 -63 -28 13 -8 13 -145 0 -165 -8 -13 3
-16 78 -20 48 -3 89 -4 91 -3 3 2 -1 9 -7 15 -7 7 -12 21 -12 32 0 18 -1 18
-18 3 -10 -10 -33 -17 -50 -17 -29 0 -32 3 -32 31 0 29 1 30 32 24 26 -6 30
-5 25 10 -4 9 -7 22 -7 29 0 9 -9 12 -25 8 -22 -4 -25 -1 -25 22 0 23 4 26 34
26 19 0 38 -5 42 -11 4 -8 11 -3 20 12 12 23 10 41 -4 37 -4 -1 -40 -4 -79 -5z"/>
<path d="M1415 1101 c-46 -4 -75 -9 -67 -14 16 -11 17 -168 0 -185 -9 -9 5
-12 64 -12 42 0 84 -3 93 -6 13 -5 15 -2 9 22 -10 43 -14 47 -34 29 -11 -10
-30 -15 -47 -13 -23 2 -29 9 -31 32 -3 27 -2 29 27 23 29 -6 31 -5 31 23 0 27
-2 29 -30 24 -27 -6 -30 -4 -30 20 0 23 4 26 33 26 18 0 38 -5 45 -12 8 -8 14
-5 22 16 12 33 12 37 3 34 -5 -1 -44 -4 -88 -7z"/>
<path d="M1613 1103 c-33 -4 -42 -16 -23 -28 14 -8 13 -148 -1 -162 -18 -18
-2 -31 33 -28 29 2 55 25 29 25 -6 0 -11 16 -11 35 0 24 5 35 15 35 19 0 47
-54 39 -74 -5 -13 1 -16 28 -16 47 0 50 6 17 40 -29 28 -39 73 -19 85 19 12
11 63 -12 79 -22 16 -32 17 -95 9z m82 -43 c9 -15 -14 -40 -36 -40 -14 0 -19
7 -19 25 0 20 5 25 24 25 14 0 28 -5 31 -10z"/>
<path d="M1893 1098 c4 -13 -43 -156 -63 -190 -15 -26 -13 -28 30 -28 22 0 40
5 40 10 0 6 -5 10 -11 10 -6 0 -9 10 -7 23 3 19 9 22 43 22 39 0 40 -1 39 -32
-2 -31 0 -32 34 -30 33 2 61 27 30 27 -16 0 -68 138 -68 178 0 19 -5 22 -36
22 -24 0 -34 -4 -31 -12z m50 -88 c4 -15 0 -20 -14 -20 -12 0 -19 7 -19 18 0
37 23 38 33 2z"/>
<path d="M2309 1108 c0 -2 -2 -11 -4 -21 -6 -30 -58 -171 -67 -181 -16 -19 -7
-26 32 -26 37 0 55 13 29 22 -23 8 1 46 32 50 36 6 54 -13 45 -46 -5 -22 -3
-24 29 -24 40 0 54 14 31 31 -19 14 -66 137 -66 172 0 21 -5 25 -30 25 -16 0
-30 -1 -31 -2z m46 -95 c5 -19 2 -23 -14 -23 -21 0 -26 15 -15 45 8 19 19 10
29 -22z"/>
<path d="M2540 1103 c-8 -2 -21 -7 -29 -9 -10 -3 -11 -7 -1 -19 13 -15 10
-137 -4 -167 -7 -15 -3 -18 28 -18 37 0 44 8 25 27 -5 5 -9 37 -7 69 l3 59 34
-60 c37 -66 69 -105 86 -105 7 0 11 25 10 68 0 37 3 86 8 110 7 41 7 42 -22
42 l-28 0 4 -72 4 -73 -35 60 c-20 33 -36 68 -36 78 0 17 -11 20 -40 10z"/>
<path d="M3069 1108 c0 -2 -2 -11 -4 -21 -6 -30 -58 -171 -67 -181 -16 -19 -7
-26 32 -26 37 0 55 13 29 22 -7 2 -9 13 -4 26 6 19 13 23 43 20 34 -3 37 -5
36 -34 -2 -30 1 -32 32 -32 39 0 53 14 30 31 -19 14 -66 137 -66 172 0 21 -5
25 -30 25 -16 0 -30 -1 -31 -2z m46 -95 c5 -19 2 -23 -14 -23 -21 0 -26 15
-15 45 8 19 19 10 29 -22z"/>
<path d="M3440 1101 c-25 -3 -40 -9 -34 -13 17 -11 25 -95 16 -154 l-8 -51 33
1 c35 2 37 7 20 43 -14 31 -2 55 25 51 14 -2 23 2 22 10 -3 37 -5 39 -30 34
-22 -4 -25 -2 -22 19 2 19 10 25 36 27 21 2 32 -1 32 -10 0 -13 39 31 40 45 0
8 -61 7 -130 -2z"/>
<path d="M3659 1103 c-1 -5 -1 -11 0 -15 1 -12 -59 -172 -70 -182 -18 -19 -9
-26 31 -26 37 0 52 11 31 24 -19 12 1 44 30 48 41 6 53 -5 46 -41 -6 -30 -5
-31 28 -31 39 0 54 16 32 33 -21 17 -69 155 -62 178 5 16 1 19 -29 19 -20 0
-37 -3 -37 -7z m45 -79 c10 -26 7 -34 -14 -34 -11 0 -20 4 -20 9 0 17 12 41
20 41 4 0 11 -7 14 -16z"/>
<path d="M3885 1101 c-26 -4 -35 -9 -27 -14 16 -11 17 -168 0 -185 -7 -7 -8
-12 -2 -13 51 -4 66 -4 77 3 9 6 7 11 -5 19 -11 6 -18 22 -18 39 0 24 4 30 20
30 23 0 52 -53 43 -77 -4 -9 5 -13 31 -13 37 0 47 13 22 27 -7 4 -21 23 -30
41 -16 31 -16 36 -2 57 43 65 -5 103 -109 86z m85 -50 c0 -17 -18 -31 -40 -31
-10 0 -20 37 -12 44 3 3 16 6 29 6 16 0 23 -6 23 -19z"/>
<path d="M4125 1103 c-18 -3 -20 -12 -20 -108 l0 -105 28 0 c27 0 36 13 17 25
-12 7 -14 115 -2 115 5 0 17 -25 27 -55 17 -50 20 -53 35 -40 9 9 23 33 30 55
7 22 17 40 22 40 12 0 10 -108 -2 -115 -19 -12 -10 -25 18 -25 l27 0 0 100 c0
107 3 101 -52 104 -9 1 -17 -8 -19 -20 -2 -12 -9 -34 -15 -50 l-11 -29 -14 33
c-8 18 -16 42 -18 55 -3 23 -16 28 -51 20z"/>
<path d="M2772 1093 c-10 -4 -10 -8 -1 -19 7 -9 10 -44 8 -99 l-4 -85 27 0
c25 0 26 2 21 40 -3 23 -1 40 4 40 19 0 46 -39 40 -60 -4 -17 0 -20 28 -20 36
0 56 16 31 26 -8 3 -27 24 -42 46 l-28 40 42 40 c23 21 40 43 37 49 -9 14 -66
11 -63 -4 3 -12 -34 -67 -46 -67 -3 0 -6 14 -6 30 0 17 5 30 10 30 6 0 10 5
10 10 0 10 -45 12 -68 3z"/>
<path d="M4395 1084 c-30 -31 -15 -66 40 -94 35 -17 50 -31 50 -45 0 -30 -48
-33 -68 -5 l-15 22 -16 -31 c-15 -29 -15 -31 1 -31 9 0 31 -5 49 -12 27 -9 37
-9 58 5 57 38 36 102 -40 127 -23 8 -34 18 -34 31 0 25 45 26 59 2 9 -17 11
-17 25 2 22 28 20 32 -15 39 -51 10 -77 7 -94 -10z"/>
</g>
</svg>
